<svg xmlns="http://www.w3.org/2000/svg" viewBox="0 0 512 512">
  <circle cx="256" cy="256" r="256" fill="#21759B"/>
  <path fill="#fff" d="M256 76c-99.4 0-180 80.6-180 180s80.6 180 180 180 180-80.6 180-180S355.4 76 256 76zm0 340c-88.4 0-160-71.6-160-160S167.6 96 256 96s160 71.6 160 160-71.6 160-160 160z"/>
  <path fill="#fff" d="M172 164h-34v3c22 3 32 24 46 65l42 122 31-92-22-59c-6-16-12-29-18-37-5-7-11-10-19-10zm115 177l23 63c1 3 2 3 3 0l30-90c7-22 11-39 11-50 0-16-6-27-16-35-8-6-17-9-26-9-5 0-9 1-14 2 12 11 19 28 19 48 0 15-6 35-17 64l-13 37zm-9-180c-2 0-5 0-7 1-3 1-4 3-4 5 0 2 1 4 3 8l60 166c12-23 18-49 18-76 0-18-3-33-10-45-8-13-19-20-33-20-6 0-13 1-20 3zm-26-4l-7 1c-2 0-4 1-6 3s-2 4-2 6c0 2 1 5 3 9l14 39 20 55 19-55-12-36c-6-18-12-28-20-28z"/>
</svg>